 <svg  version="1.0" xmlns="http://www.w3.org/2000/svg"  width="200.000000pt" height="200.000000pt" viewBox="0 0 200.000000 200.000000"  preserveAspectRatio="xMidYMid meet">  <g transform="translate(0.000000,200.000000) scale(0.050000,-0.050000)" fill="#8d8b8b" stroke="none"> <path d="M931 3416 c-42 -60 -44 -587 -3 -641 46 -60 521 -52 556 10 40 72 47 510 9 601 l-31 74 -250 0 c-235 0 -252 -3 -281 -44z"/> <path d="M2626 3420 c-127 -84 -146 -164 -146 -608 0 -641 28 -618 -780 -632 -857 -15 -804 42 -796 -846 l6 -632 67 -69 c111 -114 276 -131 410 -43 104 68 121 131 133 484 16 520 25 526 821 526 809 0 766 -48 776 870 7 732 -2 808 -108 911 -91 88 -279 107 -383 39z"/> <path d="M2528 1158 c-54 -59 -68 -462 -19 -556 l32 -62 246 0 c322 0 313 -9 313 322 0 344 6 338 -298 338 -214 0 -239 -4 -274 -42z"/> </g> </svg> 