 <svg  version="1.0" xmlns="http://www.w3.org/2000/svg"  width="300.000000pt" height="300.000000pt" viewBox="0 0 300.000000 300.000000"  preserveAspectRatio="xMidYMid meet">  <g transform="translate(0.000000,300.000000) scale(0.100000,-0.100000)" fill="#7a7a7a" stroke="none"> <path d="M1272 2098 c2 -25 8 -34 26 -36 19 -3 22 1 22 32 0 32 -3 36 -26 36 -23 0 -25 -3 -22 -32z"/> <path d="M710 1881 c0 -233 1 -241 20 -241 19 0 20 8 22 193 l3 192 85 -147 c50 -86 91 -147 100 -147 9 0 45 52 87 127 111 196 102 198 103 -25 0 -186 1 -193 20 -193 19 0 20 7 20 241 0 239 0 240 -21 237 -16 -2 -46 -45 -113 -160 -50 -87 -93 -158 -96 -158 -3 0 -46 71 -96 158 -67 115 -97 158 -113 160 -21 3 -21 2 -21 -237z"/> <path d="M1276 1992 c-3 -3 -6 -83 -6 -179 l0 -173 25 0 25 0 0 174 c0 164 -1 174 -19 179 -11 3 -22 2 -25 -1z"/> <path d="M1482 1983 c-58 -28 -86 -76 -90 -152 -2 -54 1 -73 20 -106 44 -75 145 -106 225 -69 38 18 69 57 58 74 -8 13 -35 13 -35 0 0 -6 -15 -19 -32 -30 -90 -54 -198 14 -198 125 0 110 122 175 202 107 30 -25 68 -33 68 -13 0 15 -49 61 -75 71 -39 15 -106 12 -143 -7z"/> <path d="M1770 1818 c0 -171 1 -178 20 -178 19 0 20 7 20 110 0 121 10 155 54 184 14 9 37 16 51 16 20 0 25 5 25 25 0 15 -6 25 -14 25 -25 0 -70 -20 -93 -42 l-23 -21 0 29 c0 23 -5 30 -20 30 -19 0 -20 -7 -20 -178z"/> <path d="M2055 1988 c-89 -49 -130 -160 -89 -241 37 -73 88 -107 159 -107 56 0 96 19 129 63 70 91 41 234 -57 281 -40 18 -112 21 -142 4z m125 -43 c121 -63 74 -265 -62 -265 -81 0 -140 91 -116 178 23 85 104 125 178 87z"/> <path d="M330 1255 l0 -235 118 0 c130 0 173 13 226 66 83 84 83 242 -1 334 -47 53 -106 70 -240 70 l-103 0 0 -235z m230 132 c63 -32 90 -135 54 -210 -22 -47 -61 -67 -128 -67 l-56 0 0 145 0 145 53 0 c28 0 63 -6 77 -13z"/> <path d="M882 1353 c-60 -29 -102 -101 -102 -173 1 -38 34 -104 65 -128 38 -30 101 -45 154 -38 48 7 106 38 121 66 8 16 5 20 -24 30 -29 9 -39 8 -70 -11 -44 -26 -97 -20 -121 14 -31 44 -23 47 114 47 145 0 149 2 131 69 -16 60 -48 101 -93 121 -51 24 -131 25 -175 3z m143 -78 c45 -44 35 -55 -55 -55 -68 0 -80 2 -80 17 0 9 10 27 22 40 30 32 81 31 113 -2z"/> <path d="M1282 1353 c-37 -18 -63 -52 -80 -102 -24 -68 -6 -139 48 -193 34 -35 42 -38 93 -38 45 0 61 5 86 26 l31 26 0 -39 c0 -78 -92 -117 -175 -74 l-39 21 -25 -25 c-25 -24 -25 -25 -6 -40 64 -51 179 -61 255 -22 82 41 85 51 88 277 l3 198 -43 -1 c-39 -2 -43 -5 -49 -32 -4 -17 -7 -25 -8 -18 -2 21 -67 53 -107 53 -22 0 -54 -8 -72 -17z m147 -89 c27 -23 31 -32 31 -78 0 -63 -22 -90 -75 -90 -53 0 -85 36 -85 94 0 48 11 70 45 88 31 17 51 14 84 -14z"/> <path d="M1647 1363 c-4 -3 -7 -82 -7 -175 l0 -168 50 0 50 0 0 104 c0 101 1 105 26 125 14 11 41 23 60 27 33 6 34 8 34 50 0 33 -4 44 -15 44 -25 0 -73 -29 -85 -50 -16 -31 -30 -24 -30 15 0 34 -1 35 -38 35 -21 0 -42 -3 -45 -7z"/> <path d="M1988 1350 c-101 -55 -123 -204 -42 -285 74 -74 210 -71 282 7 l22 25 -41 12 c-34 10 -44 10 -57 -3 -43 -38 -119 -27 -141 20 -6 14 -11 27 -11 29 0 3 60 6 133 7 l132 3 -3 44 c-3 56 -23 93 -68 128 -49 37 -150 44 -206 13z m140 -67 c11 -10 23 -28 27 -40 6 -23 5 -23 -74 -23 -91 0 -101 11 -56 55 29 30 74 33 103 8z"/> <path d="M2405 1355 c-70 -38 -98 -85 -98 -167 0 -67 33 -127 83 -153 44 -23 120 -30 164 -15 37 12 96 55 96 70 0 5 -16 14 -36 20 -29 10 -38 9 -53 -4 -28 -25 -74 -30 -110 -12 -17 9 -31 21 -31 25 0 5 -3 16 -6 25 -5 14 10 16 125 16 l131 0 0 45 c0 57 -20 96 -66 132 -30 22 -49 28 -103 31 -47 2 -75 -2 -96 -13z m133 -72 c11 -10 23 -28 27 -40 6 -23 5 -23 -74 -23 -91 0 -101 11 -56 55 29 30 74 33 103 8z"/> </g> </svg> 